<?xml version="1.0" encoding="UTF-8" standalone="no"?>
<svg
   height="256pt"
   viewBox="1 -12 256.50073 256"
   width="256pt"
   version="1.1"
   id="svg14"
   sodipodi:docname="logo.svg"
   inkscape:version="1.4 (e7c3feb100, 2024-10-09)"
   xmlns:inkscape="http://www.inkscape.org/namespaces/inkscape"
   xmlns:sodipodi="http://sodipodi.sourceforge.net/DTD/sodipodi-0.dtd"
   xmlns="http://www.w3.org/2000/svg"
   xmlns:svg="http://www.w3.org/2000/svg">
  <defs
     id="defs14" />
  <sodipodi:namedview
     id="namedview14"
     pagecolor="#ffffff"
     bordercolor="#000000"
     borderopacity="0.25"
     inkscape:showpageshadow="2"
     inkscape:pageopacity="0.0"
     inkscape:pagecheckerboard="0"
     inkscape:deskcolor="#d1d1d1"
     inkscape:document-units="pt"
     inkscape:zoom="1.6908023"
     inkscape:cx="340.66667"
     inkscape:cy="340.66667"
     inkscape:window-width="3440"
     inkscape:window-height="1371"
     inkscape:window-x="0"
     inkscape:window-y="0"
     inkscape:window-maximized="1"
     inkscape:current-layer="svg14" />
  <path
     d="m 83.53905,240.35369 c -31.056811,-3.14287 -55.741789,-27.86503 -58.835729,-58.93554 -1.908027,0.67711 -3.956955,1.05871 -6.099816,1.05871 -4.972612,0 -9.475556,-2.00196 -12.7612767,-5.2368 -2.8062674,-2.76712 -2.8062674,-7.33465 0,-10.10178 3.2857207,-3.23484 7.7886647,-5.23093 12.7612767,-5.23093 2.835622,0 5.520559,0.65362 7.911953,1.8141 -1.162429,-2.3914 -1.816051,-5.07046 -1.816051,-7.91 0,-4.97261 1.99609,-9.47751 5.23093,-12.76128 2.767129,-2.80626 7.334652,-2.80626 10.101781,0 3.236797,3.28377 5.2368,7.78867 5.2368,12.76128 0,3.5186 -1.005873,6.79845 -2.737774,9.58319 l 2.410963,1.33268 c 1.898243,1.04893 3.913902,1.85519 5.998055,2.3914 2.084153,0.54207 4.230928,0.81605 6.401186,0.81605 14.138971,0 25.596918,-11.45795 25.596918,-25.59692 v -1.40509 c 0,-47.013791 37.859174,-85.70271 84.869044,-85.728151 46.9179,-0.02544 84.95711,38.00203 84.95711,84.914061 0,9.72017 -1.21135,18.52449 -3.33856,26.4932 z m 0,0"
     fill="#59c2e7"
     id="path1"
     style="stroke-width:0.500979" />
  <path
     d="m 83.53905,240.35369 c 0,0 22.38165,-9.67908 22.38165,-9.67908 -4.12526,0 -8.250508,0.0763 -12.360105,-0.34247 -28.786747,-2.91194 -52.095989,-24.36208 -57.8142,-52.22515 -0.68689,-3.34247 -3.643842,-5.66341 -7.056765,-5.65167 -0.02153,0 -0.04305,0 -0.06458,0 -4.972612,0 -9.475557,-2.00001 -12.761277,-5.2368 -1.301373,-1.28376 -1.992176,-2.95695 -2.08611,-4.6595 -3.9510837,1.08806 -9.0508975,3.85323 -9.9080422,8.26224 -0.4422707,2.2779 0.2837577,4.75344 1.9745633,6.4188 3.3796543,3.33465 8.0137139,5.2368 12.7612769,5.2368 2.140904,0 4.191789,-0.3816 6.099816,-1.05871 0.379648,3.82584 1.097849,7.62428 2.140905,11.32488 5.448151,19.30728 20.011779,35.58715 38.683048,43.15272 5.655588,2.29159 11.700609,3.81997 18.00982,4.45794 z m 0,0"
     fill="#00acdc"
     id="path2"
     style="stroke-width:0.500979" />
  <path
     d="m 249.42586,168.61187 v 0.006 c -5.86498,21.94916 -18.70845,37.55584 -32.51082,48.49324 -19.46579,15.43056 -43.71046,23.58517 -68.55395,23.58517 H 90.259219 c -2.270063,0 -4.508815,-0.11741 -6.720169,-0.34246 C 131.63699,143.87614 249.42586,168.612 249.42586,168.612 Z m 0,0"
     fill="#e8e8e8"
     id="path3"
     style="stroke-width:0.500979" />
  <path
     d="m 216.92874,217.1012 c 4.95695,-3.93739 9.58123,-8.30335 13.72214,-13.09396 -1.22701,1.06458 -2.46576,2.09394 -3.7143,3.0822 -19.46579,15.43055 -43.71045,23.58517 -68.5559,23.58517 h -58.10187 c -3.651672,0 -7.293558,-0.31311 -10.896305,-0.9139 -2.043056,3.35813 -3.996093,6.88651 -5.843455,10.59298 1.105677,0.1135 5.585138,0.34246 6.720169,0.34246 h 58.101871 c 6.21136,0 12.38359,-0.51076 18.45601,-1.51468 18.10766,-3 35.62824,-10.6008 50.09794,-22.07049 0.004,-0.004 0.008,-0.008 0.0137,-0.01 z m 0,0"
     fill="#c7c5cb"
     id="path4"
     style="stroke-width:0.500979" />
  <path
     d="m 219.79958,139.49439 h -9.11939 c -2.07632,0 -3.75734,-1.68297 -3.75734,-3.7593 0,-2.07437 1.68102,-3.75734 3.75734,-3.75734 h 9.11939 c 2.07633,0 3.75735,1.68297 3.75735,3.75734 0,2.07633 -1.68102,3.7593 -3.75735,3.7593 z m 0,0"
     fill="#ffc9d3"
     id="path5"
     style="stroke-width:0.500979" />
  <path
     d="m 193.77605,40.412014 c 1.52251,-18.849351 16.00786,-25.733905 22.26815,-18.708451 3.00587,3.373783 1.58317,7.77888 -1.32486,10.671253 -3.32682,3.311161 -8.08221,3.958912 -12.19572,5.859111 -2.18396,1.00783 -4.34443,2.205484 -6.35813,3.58122 -1.06654,0.727986 -2.49316,-0.117417 -2.38944,-1.403133 z m 0,0"
     fill="#59c2e7"
     id="path6"
     style="stroke-width:0.500979" />
  <path
     d="m 175.22024,40.412014 c -1.5225,-18.849351 -16.00786,-25.733905 -22.26814,-18.708451 -3.00588,3.373783 -1.58317,7.77888 1.32485,10.671253 3.32682,3.311161 8.08221,3.958912 12.19377,5.859111 2.18591,1.00783 4.34638,2.205484 6.36009,3.58122 1.06653,0.727986 2.49315,-0.117417 2.38943,-1.403133 z m 0,0"
     fill="#59c2e7"
     id="path7"
     style="stroke-width:0.500979" />
  <path
     d="m 184.06957,23.595934 c 0.23875,0.228964 0.61644,0.228964 0.85519,0 10.56754,-10.203541 7.76323,-19.3385883 -0.42661,-19.3385883 -8.18984,0 -10.99415,9.1350473 -0.42858,19.3385883 z m 0,0"
     fill="#a7e0f5"
     id="path8"
     style="stroke-width:0.500979" />
  <path
     d="m 225.3221,124.27519 v -7.15266 c 0,-2.07437 -1.68298,-3.75734 -3.75735,-3.75734 -2.07632,0 -3.75734,1.68297 -3.75734,3.75734 v 7.15266 c 0,2.07632 1.68102,3.7593 3.75734,3.7593 2.07437,0 3.75735,-1.68298 3.75735,-3.7593 z m 0,0"
     id="path9"
     style="stroke-width:0.500979" />
  <path
     d="m 133.83464,144.3535 c 2.03523,-0.41291 3.3503,-2.3953 2.93935,-4.42858 -0.41292,-2.03522 -2.39727,-3.34834 -4.43054,-2.93934 -5.34052,1.0822 -10.20746,3.69864 -14.07244,7.56558 -6.90608,6.90412 -9.67907,17.07831 -7.2368,26.54603 0.69276,2.68494 2.78866,4.78084 5.47164,5.4736 2.27397,0.58512 4.58904,0.87084 6.89042,0.87084 7.2779,0 14.41099,-2.85911 19.65757,-8.10765 3.86694,-3.86693 6.48338,-8.73387 7.56362,-14.07439 0.41291,-2.03523 -0.90216,-4.01762 -2.93739,-4.42858 -2.03523,-0.41292 -4.01762,0.90216 -4.42858,2.93738 -0.78669,3.88847 -2.69276,7.4325 -5.51077,10.25247 -5.03524,5.03328 -12.45208,7.05285 -19.3562,5.27203 -0.0372,-0.01 -0.0626,-0.0352 -0.0724,-0.0724 -1.78082,-6.90608 0.23875,-14.32292 5.27203,-19.3562 2.81801,-2.81801 6.364,-4.72408 10.2505,-5.51078 z m 0,0"
     id="path10"
     style="stroke-width:0.500979" />
  <path
     d="m 195.29073,45.821026 c 1.03719,0.0039 2.07828,-0.291586 2.97457,-0.902155 5.89433,-4.025448 13.96871,-4.788658 19.08418,-9.878688 4.86498,-4.841496 5.47555,-11.354229 1.48141,-15.835646 -2.27202,-2.54795 -5.43445,-3.951084 -8.90804,-3.951084 -8.68103,0 -18.60864,8.710389 -19.91197,24.855233 -0.24854,3.062628 2.22114,5.704512 5.27985,5.71234 z m 14.63212,-23.052882 c 1.33856,0 2.44619,0.483367 3.29551,1.436402 1.99413,2.236795 -0.83953,5.178092 -1.1683,5.50686 -2.9002,2.886502 -7.52252,3.448147 -11.12135,5.111556 -0.90411,0.41683 -1.78866,0.857144 -2.64776,1.317028 1.64188,-6.467723 5.63211,-13.371846 11.6419,-13.371846 z m 0,0"
     id="path11"
     style="stroke-width:0.500979" />
  <path
     d="m 159.03234,15.251496 c -3.47358,0 -6.63602,1.403134 -8.90608,3.953041 -3.99414,4.481417 -3.38552,10.99415 1.47946,15.835646 2.87476,2.859106 6.42467,4.093942 9.55383,5.182006 3.37965,1.176128 6.56948,2.671238 9.53035,4.694725 3.60666,2.461845 8.60471,-0.475538 8.25442,-4.808228 -1.30137,-16.144844 -11.23094,-24.85719 -19.91198,-24.85719 z m 8.99415,19.571466 c -3.57926,-1.655581 -8.23093,-2.238752 -11.11939,-5.111556 -0.32877,-0.328768 -3.16439,-3.270065 -1.17026,-5.50686 0.84932,-0.953035 1.95891,-1.436402 3.29746,-1.436402 6.0098,0 9.99806,6.904123 11.63995,13.371846 -0.85911,-0.459884 -1.74365,-0.900198 -2.64776,-1.317028 z m 0,0"
     id="path12"
     style="stroke-width:0.500979" />
  <path
     d="m 181.44139,26.298484 c 1.67711,1.618398 4.39923,1.616441 6.07438,0 6.79649,-6.563614 9.50295,-13.829772 7.23876,-19.4364365 C 193.14396,2.8776955 189.30246,0.5 184.47858,0.5 c -4.82584,0 -8.66734,2.3776955 -10.27595,6.3620475 -2.26615,5.6066645 0.44031,12.8728225 7.23876,19.4364365 z M 181.17133,9.6761426 c 0.55382,-1.3718224 2.10372,-1.6594943 3.30725,-1.6594943 1.20157,0 2.75147,0.2876719 3.30724,1.6594943 0.71233,1.7671264 -0.11937,5.0469764 -3.30724,8.8767294 -3.18983,-3.83171 -4.02154,-7.109603 -3.30725,-8.8767294 z m 0,0"
     id="path13"
     style="stroke-width:0.500979" />
  <path
     d="m 83.139832,244.09342 c 2.360083,0.23875 4.747563,0.36008 7.097861,0.36008 h 58.101877 c 25.86501,0 51.04119,-8.66538 70.89054,-24.39731 17.10571,-13.5558 28.47951,-30.53626 33.80633,-50.46976 0.002,-0.006 0.002,-0.0137 0.004,-0.0215 2.29746,-8.60667 3.46185,-17.84152 3.46185,-27.44623 0,-19.27988 -6.0822,-37.6126 -17.58712,-53.015761 -11.12331,-14.888482 -26.96874,-26.123337 -44.61848,-31.636068 -1.98043,-0.618397 -4.09003,0.485324 -4.70842,2.465758 -0.6184,1.982391 0.48532,4.08807 2.46575,4.708424 16.15268,5.043062 30.6576,15.328796 40.83961,28.958959 8.35618,11.187888 13.58124,24.064628 15.38359,37.726098 -2.8317,0.49707 -6.67907,0.58513 -8.9824,-1.45597 -1.55382,-1.37574 -3.92956,-1.23092 -5.30529,0.3229 -1.37574,1.55382 -1.23288,3.9276 0.32094,5.30333 3.18395,2.81997 7.18592,3.62623 10.72409,3.62623 1.3953,0 2.71429,-0.12524 3.8865,-0.30332 0.043,1.09589 0.0665,2.1957 0.0665,3.29942 0,7.71625 -0.80235,15.15658 -2.38748,22.17225 -15.09005,-2.44032 -30.55583,-2.85519 -45.78874,-1.71233 -16.36402,1.22505 -31.7848,4.40901 -45.83179,9.46381 -3.30725,1.18983 -6.54013,2.48533 -9.69474,3.88259 -13.67125,6.05872 -25.88067,14.05287 -36.39733,23.84349 -1.51859,1.41488 -1.60274,3.79257 -0.18982,5.31117 1.37769,1.47945 3.83562,1.5636 5.31117,0.18982 8.364,-7.78671 17.8787,-14.37185 28.41101,-19.67714 4.7867,-2.41292 9.78475,-4.5597 14.98241,-6.43445 13.37772,-4.8278 28.09791,-7.87869 43.7496,-9.06656 10.78671,-0.81996 21.64975,-0.73385 32.42472,0.20352 3.59687,0.31116 7.37379,0.74365 11.01959,1.29942 0.008,0.002 0.0156,0.004 0.0235,0.004 -5.29746,16.64191 -15.39337,30.94527 -30.05876,42.56564 -18.52646,14.68496 -42.04314,22.77304 -66.21931,22.77304 H 90.237693 c -0.223093,0 -0.444228,0 -0.669277,-0.004 4.191789,-7.6145 9.099822,-14.86892 14.728014,-21.49711 1.34442,-1.58122 1.15069,-3.95304 -0.43249,-5.29551 -1.58121,-1.34442 -3.953039,-1.15069 -5.295507,0.43053 -6.499034,7.64972 -12.092,16.07831 -16.782811,24.94917 -0.138944,0.26223 -0.283758,0.52055 -0.422701,0.78474 -28.037236,-4.01175 -50.111642,-26.86894 -52.939436,-55.26038 -0.238748,-2.39335 -2.729947,-3.97457 -4.998053,-3.16831 -5.176135,1.84149 -11.050901,0.54208 -14.9628464,-3.31312 -1.3033295,-1.2818 -1.3052863,-3.4638 -0.00196,-4.74756 4.2876794,-4.22701 10.9745804,-5.34443 16.3914214,-2.71429 3.135035,1.52251 6.546,-1.8865 5.023492,-5.02153 -0.953035,-1.96283 -1.438358,-4.07242 -1.438358,-6.26812 0,-3.81214 1.473584,-7.40706 4.148736,-10.12331 1.283759,-1.30137 3.46576,-1.30333 4.749519,-0.002 2.679066,2.72016 4.156564,6.31508 4.156564,10.12526 0,2.68689 -0.751469,5.31508 -2.172216,7.6008 -1.115462,1.79257 -0.467711,4.25441 1.37378,5.27202 5.215274,2.88259 10.589061,5.00784 16.628212,5.00784 16.913927,0 29.354263,-14.41686 29.354263,-30.75935 0,-45.174257 36.387551,-81.947322 81.113661,-81.970805 h 0.045 c 3.37574,0 6.78671,0.211351 10.13701,0.630138 2.05675,0.258318 3.93738,-1.205482 4.19374,-3.266151 0.25636,-2.058712 -1.20548,-3.935428 -3.26419,-4.193745 -3.65754,-0.454013 -7.38162,-0.684933 -11.06852,-0.684933 -0.0156,0 -0.0313,0 -0.047,0 -48.86702,0.02544 -88.624442,40.166417 -88.624442,89.483536 -0.002,12.39337 -8.859117,23.24466 -21.839572,23.24466 -3.405095,0 -6.794534,-0.80822 -9.835636,-2.34247 1.001959,-2.54403 1.520551,-5.26224 1.520551,-8.02154 0,-5.79453 -2.242665,-11.26421 -6.318994,-15.4012 -4.185918,-4.2505 -11.272037,-4.23876 -15.454041,0.002 -4.070458,4.13309 -6.311167,9.60081 -6.311167,15.39925 0,0.83171 0.04501,1.65754 0.136986,2.47359 -6.549914,-0.73386 -13.1800642,1.5499 -17.874789,6.17613 -4.2485405,4.18592 -4.2407127,11.27204 0.00196,15.45405 4.776917,4.71233 11.663427,7.01958 18.315104,6.12134 5.000009,30.77892 30.291642,54.88269 61.638082,58.05686 z m 0,0"
     id="path14"
     style="stroke-width:0.500979" />
</svg>
